<mxfile host="app.diagrams.net" modified="2024-06-22T05:53:11.293Z" agent="Mozilla/5.0 (Macintosh; Intel Mac OS X 10_15_7) AppleWebKit/537.36 (KHTML, like Gecko) Chrome/126.0.0.0 Safari/537.36" etag="ZDC435pKEa2bvpOypScZ" version="24.6.1" type="github">
  <diagram name="Page-1" id="d1mbv-oQAAzh3GBhLqbm">
    <mxGraphModel dx="844" dy="468" grid="1" gridSize="10" guides="1" tooltips="1" connect="1" arrows="1" fold="1" page="1" pageScale="1" pageWidth="850" pageHeight="1100" math="0" shadow="0">
      <root>
        <mxCell id="0" />
        <mxCell id="1" parent="0" />
        <mxCell id="21" value="floor_plans" style="shape=table;startSize=25;container=1;collapsible=0;childLayout=tableLayout;fixedRows=1;rowLines=1;fontStyle=1;align=center;resizeLast=1;" parent="1" vertex="1">
          <mxGeometry x="30" y="300" width="159" height="135" as="geometry" />
        </mxCell>
        <mxCell id="22" style="shape=tableRow;horizontal=0;startSize=0;swimlaneHead=0;swimlaneBody=0;fillColor=none;collapsible=0;dropTarget=0;points=[[0,0.5],[1,0.5]];portConstraint=eastwest;top=0;left=0;right=0;bottom=0;" parent="21" vertex="1">
          <mxGeometry y="25" width="159" height="22" as="geometry" />
        </mxCell>
        <mxCell id="23" value="floor_plan_id" style="shape=partialRectangle;connectable=0;fillColor=none;top=0;left=0;bottom=0;right=0;align=left;spacingLeft=2;overflow=hidden;fontSize=11;" parent="22" vertex="1">
          <mxGeometry width="90" height="22" as="geometry">
            <mxRectangle width="90" height="22" as="alternateBounds" />
          </mxGeometry>
        </mxCell>
        <mxCell id="24" value="STRING" style="shape=partialRectangle;connectable=0;fillColor=none;top=0;left=0;bottom=0;right=0;align=left;spacingLeft=2;overflow=hidden;fontSize=11;" parent="22" vertex="1">
          <mxGeometry x="90" width="69" height="22" as="geometry">
            <mxRectangle width="69" height="22" as="alternateBounds" />
          </mxGeometry>
        </mxCell>
        <mxCell id="25" style="shape=tableRow;horizontal=0;startSize=0;swimlaneHead=0;swimlaneBody=0;fillColor=none;collapsible=0;dropTarget=0;points=[[0,0.5],[1,0.5]];portConstraint=eastwest;top=0;left=0;right=0;bottom=0;" parent="21" vertex="1">
          <mxGeometry y="47" width="159" height="22" as="geometry" />
        </mxCell>
        <mxCell id="26" value="plan_name" style="shape=partialRectangle;connectable=0;fillColor=none;top=0;left=0;bottom=0;right=0;align=left;spacingLeft=2;overflow=hidden;fontSize=11;" parent="25" vertex="1">
          <mxGeometry width="90" height="22" as="geometry">
            <mxRectangle width="90" height="22" as="alternateBounds" />
          </mxGeometry>
        </mxCell>
        <mxCell id="27" value="VARCHAR" style="shape=partialRectangle;connectable=0;fillColor=none;top=0;left=0;bottom=0;right=0;align=left;spacingLeft=2;overflow=hidden;fontSize=11;" parent="25" vertex="1">
          <mxGeometry x="90" width="69" height="22" as="geometry">
            <mxRectangle width="69" height="22" as="alternateBounds" />
          </mxGeometry>
        </mxCell>
        <mxCell id="28" style="shape=tableRow;horizontal=0;startSize=0;swimlaneHead=0;swimlaneBody=0;fillColor=none;collapsible=0;dropTarget=0;points=[[0,0.5],[1,0.5]];portConstraint=eastwest;top=0;left=0;right=0;bottom=0;" parent="21" vertex="1">
          <mxGeometry y="69" width="159" height="22" as="geometry" />
        </mxCell>
        <mxCell id="29" value="bedrooms" style="shape=partialRectangle;connectable=0;fillColor=none;top=0;left=0;bottom=0;right=0;align=left;spacingLeft=2;overflow=hidden;fontSize=11;" parent="28" vertex="1">
          <mxGeometry width="90" height="22" as="geometry">
            <mxRectangle width="90" height="22" as="alternateBounds" />
          </mxGeometry>
        </mxCell>
        <mxCell id="30" value="FLOAT" style="shape=partialRectangle;connectable=0;fillColor=none;top=0;left=0;bottom=0;right=0;align=left;spacingLeft=2;overflow=hidden;fontSize=11;" parent="28" vertex="1">
          <mxGeometry x="90" width="69" height="22" as="geometry">
            <mxRectangle width="69" height="22" as="alternateBounds" />
          </mxGeometry>
        </mxCell>
        <mxCell id="31" style="shape=tableRow;horizontal=0;startSize=0;swimlaneHead=0;swimlaneBody=0;fillColor=none;collapsible=0;dropTarget=0;points=[[0,0.5],[1,0.5]];portConstraint=eastwest;top=0;left=0;right=0;bottom=0;" parent="21" vertex="1">
          <mxGeometry y="91" width="159" height="22" as="geometry" />
        </mxCell>
        <mxCell id="32" value="bathrooms" style="shape=partialRectangle;connectable=0;fillColor=none;top=0;left=0;bottom=0;right=0;align=left;spacingLeft=2;overflow=hidden;fontSize=11;" parent="31" vertex="1">
          <mxGeometry width="90" height="22" as="geometry">
            <mxRectangle width="90" height="22" as="alternateBounds" />
          </mxGeometry>
        </mxCell>
        <mxCell id="33" value="FLOAT" style="shape=partialRectangle;connectable=0;fillColor=none;top=0;left=0;bottom=0;right=0;align=left;spacingLeft=2;overflow=hidden;fontSize=11;" parent="31" vertex="1">
          <mxGeometry x="90" width="69" height="22" as="geometry">
            <mxRectangle width="69" height="22" as="alternateBounds" />
          </mxGeometry>
        </mxCell>
        <mxCell id="34" style="shape=tableRow;horizontal=0;startSize=0;swimlaneHead=0;swimlaneBody=0;fillColor=none;collapsible=0;dropTarget=0;points=[[0,0.5],[1,0.5]];portConstraint=eastwest;top=0;left=0;right=0;bottom=0;" parent="21" vertex="1">
          <mxGeometry y="113" width="159" height="22" as="geometry" />
        </mxCell>
        <mxCell id="35" value="sq_ft" style="shape=partialRectangle;connectable=0;fillColor=none;top=0;left=0;bottom=0;right=0;align=left;spacingLeft=2;overflow=hidden;fontSize=11;" parent="34" vertex="1">
          <mxGeometry width="90" height="22" as="geometry">
            <mxRectangle width="90" height="22" as="alternateBounds" />
          </mxGeometry>
        </mxCell>
        <mxCell id="36" value="INT" style="shape=partialRectangle;connectable=0;fillColor=none;top=0;left=0;bottom=0;right=0;align=left;spacingLeft=2;overflow=hidden;fontSize=11;" parent="34" vertex="1">
          <mxGeometry x="90" width="69" height="22" as="geometry">
            <mxRectangle width="69" height="22" as="alternateBounds" />
          </mxGeometry>
        </mxCell>
        <mxCell id="37" value="change_log" style="shape=table;startSize=25;container=1;collapsible=0;childLayout=tableLayout;fixedRows=1;rowLines=1;fontStyle=1;align=center;resizeLast=1;" parent="1" vertex="1">
          <mxGeometry x="351" y="280" width="149" height="157" as="geometry" />
        </mxCell>
        <mxCell id="38" style="shape=tableRow;horizontal=0;startSize=0;swimlaneHead=0;swimlaneBody=0;fillColor=none;collapsible=0;dropTarget=0;points=[[0,0.5],[1,0.5]];portConstraint=eastwest;top=0;left=0;right=0;bottom=0;" parent="37" vertex="1">
          <mxGeometry y="25" width="149" height="22" as="geometry" />
        </mxCell>
        <mxCell id="39" value="log_id" style="shape=partialRectangle;connectable=0;fillColor=none;top=0;left=0;bottom=0;right=0;align=left;spacingLeft=2;overflow=hidden;fontSize=11;" parent="38" vertex="1">
          <mxGeometry width="66" height="22" as="geometry">
            <mxRectangle width="66" height="22" as="alternateBounds" />
          </mxGeometry>
        </mxCell>
        <mxCell id="40" value="INT" style="shape=partialRectangle;connectable=0;fillColor=none;top=0;left=0;bottom=0;right=0;align=left;spacingLeft=2;overflow=hidden;fontSize=11;" parent="38" vertex="1">
          <mxGeometry x="66" width="83" height="22" as="geometry">
            <mxRectangle width="83" height="22" as="alternateBounds" />
          </mxGeometry>
        </mxCell>
        <mxCell id="41" style="shape=tableRow;horizontal=0;startSize=0;swimlaneHead=0;swimlaneBody=0;fillColor=none;collapsible=0;dropTarget=0;points=[[0,0.5],[1,0.5]];portConstraint=eastwest;top=0;left=0;right=0;bottom=0;" parent="37" vertex="1">
          <mxGeometry y="47" width="149" height="22" as="geometry" />
        </mxCell>
        <mxCell id="42" value="table_name" style="shape=partialRectangle;connectable=0;fillColor=none;top=0;left=0;bottom=0;right=0;align=left;spacingLeft=2;overflow=hidden;fontSize=11;" parent="41" vertex="1">
          <mxGeometry width="66" height="22" as="geometry">
            <mxRectangle width="66" height="22" as="alternateBounds" />
          </mxGeometry>
        </mxCell>
        <mxCell id="43" value="VARCHAR" style="shape=partialRectangle;connectable=0;fillColor=none;top=0;left=0;bottom=0;right=0;align=left;spacingLeft=2;overflow=hidden;fontSize=11;" parent="41" vertex="1">
          <mxGeometry x="66" width="83" height="22" as="geometry">
            <mxRectangle width="83" height="22" as="alternateBounds" />
          </mxGeometry>
        </mxCell>
        <mxCell id="44" style="shape=tableRow;horizontal=0;startSize=0;swimlaneHead=0;swimlaneBody=0;fillColor=none;collapsible=0;dropTarget=0;points=[[0,0.5],[1,0.5]];portConstraint=eastwest;top=0;left=0;right=0;bottom=0;" parent="37" vertex="1">
          <mxGeometry y="69" width="149" height="22" as="geometry" />
        </mxCell>
        <mxCell id="45" value="column_name" style="shape=partialRectangle;connectable=0;fillColor=none;top=0;left=0;bottom=0;right=0;align=left;spacingLeft=2;overflow=hidden;fontSize=11;" parent="44" vertex="1">
          <mxGeometry width="66" height="22" as="geometry">
            <mxRectangle width="66" height="22" as="alternateBounds" />
          </mxGeometry>
        </mxCell>
        <mxCell id="46" value="VARCHAR" style="shape=partialRectangle;connectable=0;fillColor=none;top=0;left=0;bottom=0;right=0;align=left;spacingLeft=2;overflow=hidden;fontSize=11;" parent="44" vertex="1">
          <mxGeometry x="66" width="83" height="22" as="geometry">
            <mxRectangle width="83" height="22" as="alternateBounds" />
          </mxGeometry>
        </mxCell>
        <mxCell id="47" style="shape=tableRow;horizontal=0;startSize=0;swimlaneHead=0;swimlaneBody=0;fillColor=none;collapsible=0;dropTarget=0;points=[[0,0.5],[1,0.5]];portConstraint=eastwest;top=0;left=0;right=0;bottom=0;" parent="37" vertex="1">
          <mxGeometry y="91" width="149" height="22" as="geometry" />
        </mxCell>
        <mxCell id="48" value="old_value" style="shape=partialRectangle;connectable=0;fillColor=none;top=0;left=0;bottom=0;right=0;align=left;spacingLeft=2;overflow=hidden;fontSize=11;" parent="47" vertex="1">
          <mxGeometry width="66" height="22" as="geometry">
            <mxRectangle width="66" height="22" as="alternateBounds" />
          </mxGeometry>
        </mxCell>
        <mxCell id="49" value="VARCHAR" style="shape=partialRectangle;connectable=0;fillColor=none;top=0;left=0;bottom=0;right=0;align=left;spacingLeft=2;overflow=hidden;fontSize=11;" parent="47" vertex="1">
          <mxGeometry x="66" width="83" height="22" as="geometry">
            <mxRectangle width="83" height="22" as="alternateBounds" />
          </mxGeometry>
        </mxCell>
        <mxCell id="50" style="shape=tableRow;horizontal=0;startSize=0;swimlaneHead=0;swimlaneBody=0;fillColor=none;collapsible=0;dropTarget=0;points=[[0,0.5],[1,0.5]];portConstraint=eastwest;top=0;left=0;right=0;bottom=0;" parent="37" vertex="1">
          <mxGeometry y="113" width="149" height="22" as="geometry" />
        </mxCell>
        <mxCell id="51" value="new_value" style="shape=partialRectangle;connectable=0;fillColor=none;top=0;left=0;bottom=0;right=0;align=left;spacingLeft=2;overflow=hidden;fontSize=11;" parent="50" vertex="1">
          <mxGeometry width="66" height="22" as="geometry">
            <mxRectangle width="66" height="22" as="alternateBounds" />
          </mxGeometry>
        </mxCell>
        <mxCell id="52" value="VARCHAR" style="shape=partialRectangle;connectable=0;fillColor=none;top=0;left=0;bottom=0;right=0;align=left;spacingLeft=2;overflow=hidden;fontSize=11;" parent="50" vertex="1">
          <mxGeometry x="66" width="83" height="22" as="geometry">
            <mxRectangle width="83" height="22" as="alternateBounds" />
          </mxGeometry>
        </mxCell>
        <mxCell id="53" style="shape=tableRow;horizontal=0;startSize=0;swimlaneHead=0;swimlaneBody=0;fillColor=none;collapsible=0;dropTarget=0;points=[[0,0.5],[1,0.5]];portConstraint=eastwest;top=0;left=0;right=0;bottom=0;" parent="37" vertex="1">
          <mxGeometry y="135" width="149" height="22" as="geometry" />
        </mxCell>
        <mxCell id="54" value="timestamp" style="shape=partialRectangle;connectable=0;fillColor=none;top=0;left=0;bottom=0;right=0;align=left;spacingLeft=2;overflow=hidden;fontSize=11;" parent="53" vertex="1">
          <mxGeometry width="66" height="22" as="geometry">
            <mxRectangle width="66" height="22" as="alternateBounds" />
          </mxGeometry>
        </mxCell>
        <mxCell id="55" value="DATETIME" style="shape=partialRectangle;connectable=0;fillColor=none;top=0;left=0;bottom=0;right=0;align=left;spacingLeft=2;overflow=hidden;fontSize=11;" parent="53" vertex="1">
          <mxGeometry x="66" width="83" height="22" as="geometry">
            <mxRectangle width="83" height="22" as="alternateBounds" />
          </mxGeometry>
        </mxCell>
        <mxCell id="56" value="has" style="curved=1;startArrow=ERmandOne;startSize=10;;endArrow=ERmandOne;endSize=10;;exitX=0;exitY=0.97;entryX=0.5;entryY=0;" parent="1" source="2" target="21" edge="1">
          <mxGeometry relative="1" as="geometry">
            <Array as="points">
              <mxPoint x="99" y="226" />
            </Array>
          </mxGeometry>
        </mxCell>
        <mxCell id="57" value="logs" style="curved=1;startArrow=ERmandOne;startSize=10;;endArrow=ERzeroToOne;endSize=10;;exitX=1;exitY=0.97;entryX=0.5;entryY=0;" parent="1" source="2" target="37" edge="1">
          <mxGeometry relative="1" as="geometry">
            <Array as="points">
              <mxPoint x="353" y="226" />
            </Array>
          </mxGeometry>
        </mxCell>
        <mxCell id="2" value="apartments" style="shape=table;startSize=25;container=1;collapsible=0;childLayout=tableLayout;fixedRows=1;rowLines=1;fontStyle=1;align=center;resizeLast=1;" parent="1" vertex="1">
          <mxGeometry x="230" y="20" width="145" height="157" as="geometry" />
        </mxCell>
        <mxCell id="3" style="shape=tableRow;horizontal=0;startSize=0;swimlaneHead=0;swimlaneBody=0;fillColor=none;collapsible=0;dropTarget=0;points=[[0,0.5],[1,0.5]];portConstraint=eastwest;top=0;left=0;right=0;bottom=0;" parent="2" vertex="1">
          <mxGeometry y="25" width="145" height="22" as="geometry" />
        </mxCell>
        <mxCell id="4" value="apartment_id" style="shape=partialRectangle;connectable=0;fillColor=none;top=0;left=0;bottom=0;right=0;align=left;spacingLeft=2;overflow=hidden;fontSize=11;" parent="3" vertex="1">
          <mxGeometry width="78" height="22" as="geometry">
            <mxRectangle width="78" height="22" as="alternateBounds" />
          </mxGeometry>
        </mxCell>
        <mxCell id="5" value="INT" style="shape=partialRectangle;connectable=0;fillColor=none;top=0;left=0;bottom=0;right=0;align=left;spacingLeft=2;overflow=hidden;fontSize=11;" parent="3" vertex="1">
          <mxGeometry x="78" width="67" height="22" as="geometry">
            <mxRectangle width="67" height="22" as="alternateBounds" />
          </mxGeometry>
        </mxCell>
        <mxCell id="6" style="shape=tableRow;horizontal=0;startSize=0;swimlaneHead=0;swimlaneBody=0;fillColor=none;collapsible=0;dropTarget=0;points=[[0,0.5],[1,0.5]];portConstraint=eastwest;top=0;left=0;right=0;bottom=0;" parent="2" vertex="1">
          <mxGeometry y="47" width="145" height="22" as="geometry" />
        </mxCell>
        <mxCell id="7" value="building_id" style="shape=partialRectangle;connectable=0;fillColor=none;top=0;left=0;bottom=0;right=0;align=left;spacingLeft=2;overflow=hidden;fontSize=11;" parent="6" vertex="1">
          <mxGeometry width="78" height="22" as="geometry">
            <mxRectangle width="78" height="22" as="alternateBounds" />
          </mxGeometry>
        </mxCell>
        <mxCell id="8" value="INT" style="shape=partialRectangle;connectable=0;fillColor=none;top=0;left=0;bottom=0;right=0;align=left;spacingLeft=2;overflow=hidden;fontSize=11;" parent="6" vertex="1">
          <mxGeometry x="78" width="67" height="22" as="geometry">
            <mxRectangle width="67" height="22" as="alternateBounds" />
          </mxGeometry>
        </mxCell>
        <mxCell id="9" style="shape=tableRow;horizontal=0;startSize=0;swimlaneHead=0;swimlaneBody=0;fillColor=none;collapsible=0;dropTarget=0;points=[[0,0.5],[1,0.5]];portConstraint=eastwest;top=0;left=0;right=0;bottom=0;" parent="2" vertex="1">
          <mxGeometry y="69" width="145" height="22" as="geometry" />
        </mxCell>
        <mxCell id="10" value="floor_plan_id" style="shape=partialRectangle;connectable=0;fillColor=none;top=0;left=0;bottom=0;right=0;align=left;spacingLeft=2;overflow=hidden;fontSize=11;" parent="9" vertex="1">
          <mxGeometry width="78" height="22" as="geometry">
            <mxRectangle width="78" height="22" as="alternateBounds" />
          </mxGeometry>
        </mxCell>
        <mxCell id="11" value="INT" style="shape=partialRectangle;connectable=0;fillColor=none;top=0;left=0;bottom=0;right=0;align=left;spacingLeft=2;overflow=hidden;fontSize=11;" parent="9" vertex="1">
          <mxGeometry x="78" width="67" height="22" as="geometry">
            <mxRectangle width="67" height="22" as="alternateBounds" />
          </mxGeometry>
        </mxCell>
        <mxCell id="12" style="shape=tableRow;horizontal=0;startSize=0;swimlaneHead=0;swimlaneBody=0;fillColor=none;collapsible=0;dropTarget=0;points=[[0,0.5],[1,0.5]];portConstraint=eastwest;top=0;left=0;right=0;bottom=0;" parent="2" vertex="1">
          <mxGeometry y="91" width="145" height="22" as="geometry" />
        </mxCell>
        <mxCell id="13" value="unit_no" style="shape=partialRectangle;connectable=0;fillColor=none;top=0;left=0;bottom=0;right=0;align=left;spacingLeft=2;overflow=hidden;fontSize=11;" parent="12" vertex="1">
          <mxGeometry width="78" height="22" as="geometry">
            <mxRectangle width="78" height="22" as="alternateBounds" />
          </mxGeometry>
        </mxCell>
        <mxCell id="14" value="VARCHAR" style="shape=partialRectangle;connectable=0;fillColor=none;top=0;left=0;bottom=0;right=0;align=left;spacingLeft=2;overflow=hidden;fontSize=11;" parent="12" vertex="1">
          <mxGeometry x="78" width="67" height="22" as="geometry">
            <mxRectangle width="67" height="22" as="alternateBounds" />
          </mxGeometry>
        </mxCell>
        <mxCell id="15" style="shape=tableRow;horizontal=0;startSize=0;swimlaneHead=0;swimlaneBody=0;fillColor=none;collapsible=0;dropTarget=0;points=[[0,0.5],[1,0.5]];portConstraint=eastwest;top=0;left=0;right=0;bottom=0;" parent="2" vertex="1">
          <mxGeometry y="113" width="145" height="22" as="geometry" />
        </mxCell>
        <mxCell id="16" value="rent" style="shape=partialRectangle;connectable=0;fillColor=none;top=0;left=0;bottom=0;right=0;align=left;spacingLeft=2;overflow=hidden;fontSize=11;" parent="15" vertex="1">
          <mxGeometry width="78" height="22" as="geometry">
            <mxRectangle width="78" height="22" as="alternateBounds" />
          </mxGeometry>
        </mxCell>
        <mxCell id="17" value="DECIMAL" style="shape=partialRectangle;connectable=0;fillColor=none;top=0;left=0;bottom=0;right=0;align=left;spacingLeft=2;overflow=hidden;fontSize=11;" parent="15" vertex="1">
          <mxGeometry x="78" width="67" height="22" as="geometry">
            <mxRectangle width="67" height="22" as="alternateBounds" />
          </mxGeometry>
        </mxCell>
        <mxCell id="18" style="shape=tableRow;horizontal=0;startSize=0;swimlaneHead=0;swimlaneBody=0;fillColor=none;collapsible=0;dropTarget=0;points=[[0,0.5],[1,0.5]];portConstraint=eastwest;top=0;left=0;right=0;bottom=0;" parent="2" vertex="1">
          <mxGeometry y="135" width="145" height="22" as="geometry" />
        </mxCell>
        <mxCell id="19" value="size_sqft" style="shape=partialRectangle;connectable=0;fillColor=none;top=0;left=0;bottom=0;right=0;align=left;spacingLeft=2;overflow=hidden;fontSize=11;" parent="18" vertex="1">
          <mxGeometry width="78" height="22" as="geometry">
            <mxRectangle width="78" height="22" as="alternateBounds" />
          </mxGeometry>
        </mxCell>
        <mxCell id="20" value="INT" style="shape=partialRectangle;connectable=0;fillColor=none;top=0;left=0;bottom=0;right=0;align=left;spacingLeft=2;overflow=hidden;fontSize=11;" parent="18" vertex="1">
          <mxGeometry x="78" width="67" height="22" as="geometry">
            <mxRectangle width="67" height="22" as="alternateBounds" />
          </mxGeometry>
        </mxCell>
      </root>
    </mxGraphModel>
  </diagram>
</mxfile>
